<svg width="21" height="20" viewBox="0 0 21 20" fill="none" xmlns="http://www.w3.org/2000/svg">
<g clip-path="url(#clip0_437_168)">
<path d="M0.5 6.77769C0.5 3.74898 2.95523 1.29382 5.98387 1.29382C7.32715 1.29382 8.55672 1.77753 9.50973 2.57968C10.0825 3.06183 10.9175 3.06183 11.4903 2.57968C12.4432 1.7775 13.6728 1.29382 15.0161 1.29382C18.0448 1.29382 20.5 3.74898 20.5 6.77769V6.6164C20.5 11.9346 14.0323 16.7313 11.4998 18.4056C10.8932 18.8066 10.1067 18.8066 9.5002 18.4056C6.96773 16.7313 0.5 11.9346 0.5 6.6164" fill="#FF6464"/>
<path d="M0.5 6.77799C0.5 6.75478 0.503203 6.7324 0.503477 6.70928C0.503008 6.67838 0.5 6.64768 0.5 6.6167V6.77799Z" fill="#D2555A"/>
<path d="M4.9864 7.1378C4.98616 7.16276 4.98394 7.18694 4.98394 7.21198V7.03788C4.98394 7.07132 4.98608 7.10444 4.9864 7.1378C5.00765 4.52507 6.13605 2.32058 7.68976 1.56979C7.15269 1.39378 6.58112 1.2937 5.98503 1.2937C2.97956 1.2937 0.541826 3.71218 0.504639 6.70886C0.579209 11.9901 6.98366 16.7409 9.5014 18.4055C9.75976 18.5763 10.051 18.6698 10.3468 18.6951C8.26933 16.3606 5.03085 11.9538 4.9864 7.1378Z" fill="#D2555A"/>
<path d="M18.0598 7.26516C18.7511 7.26516 19.3115 6.70474 19.3115 6.01344C19.3115 5.32213 18.7511 4.76172 18.0598 4.76172C17.3685 4.76172 16.8081 5.32213 16.8081 6.01344C16.8081 6.70474 17.3685 7.26516 18.0598 7.26516Z" fill="#FF8B8B"/>
<path d="M16.4548 4.4088C16.8869 4.4088 17.2372 4.05854 17.2372 3.62646C17.2372 3.19438 16.8869 2.84412 16.4548 2.84412C16.0228 2.84412 15.6725 3.19438 15.6725 3.62646C15.6725 4.05854 16.0228 4.4088 16.4548 4.4088Z" fill="#FFC1C1"/>
</g>
<defs>
<clipPath id="clip0_437_168">
<rect width="20" height="20" fill="white" transform="translate(0.5)"/>
</clipPath>
</defs>
</svg>
