<svg width="12" height="12" viewBox="0 0 12 12" fill="none" xmlns="http://www.w3.org/2000/svg">
<path fill-rule="evenodd" clip-rule="evenodd" d="M10.9792 5.32468C11.1517 5.4972 11.2586 5.73532 11.2577 5.9986C11.2577 6.52515 10.8318 6.95106 10.3053 6.95106L1.69351 6.95106C1.16696 6.95106 0.741044 6.52515 0.741044 5.99859C0.741044 5.47204 1.16696 5.04613 1.69351 5.04613L10.3053 5.04613C10.5685 5.04523 10.8067 5.15216 10.9792 5.32468Z" fill="#FCFCFC"/>
<path fill-rule="evenodd" clip-rule="evenodd" d="M6.67421 1.01633C6.84673 1.18885 6.95366 1.42697 6.95276 1.69025L6.95186 10.3101C6.95186 10.8366 6.52594 11.2626 5.99939 11.2626C5.47194 11.2617 5.04602 10.8357 5.04692 10.3101L5.04782 1.69025C5.04782 1.16369 5.47374 0.737778 6.00029 0.737778C6.26357 0.73688 6.50258 0.844706 6.67421 1.01633Z" fill="#FCFCFC"/>
</svg>
