<svg width="10" height="11" viewBox="0 0 10 11" fill="none" xmlns="http://www.w3.org/2000/svg">
<path d="M7.46612 6.46675C7.3582 6.57133 7.30862 6.72258 7.3332 6.87091L7.70362 8.92091C7.73487 9.09466 7.66153 9.2705 7.51612 9.37092C7.37362 9.47508 7.18403 9.48758 7.02862 9.40425L5.1832 8.44175C5.11903 8.40758 5.04778 8.38925 4.97487 8.38717H4.86195C4.82278 8.393 4.78445 8.4055 4.74945 8.42466L2.90362 9.39175C2.81237 9.43758 2.70903 9.45383 2.60778 9.43758C2.36112 9.39092 2.19653 9.15592 2.23695 8.908L2.60778 6.858C2.63237 6.70842 2.58278 6.55633 2.47487 6.45008L0.970284 4.99175C0.84445 4.86966 0.8007 4.68633 0.8582 4.52091C0.914034 4.35591 1.05653 4.2355 1.22862 4.20841L3.29945 3.908C3.45695 3.89175 3.59528 3.79591 3.66612 3.65425L4.57862 1.78341C4.60028 1.74175 4.6282 1.70341 4.66195 1.67091L4.69945 1.64175C4.71903 1.62008 4.74153 1.60216 4.76653 1.58758L4.81195 1.57091L4.88278 1.54175H5.0582C5.21487 1.558 5.35278 1.65175 5.42487 1.79175L6.34945 3.65425C6.41612 3.7905 6.5457 3.88508 6.69528 3.908L8.76612 4.20841C8.94112 4.23341 9.08737 4.35425 9.14528 4.52091C9.19987 4.688 9.15278 4.87133 9.02445 4.99175L7.46612 6.46675Z" fill="#FFCB55"/>
</svg>
