<svg width="100" height="100" viewBox="0 0 100 100" fill="none" xmlns="http://www.w3.org/2000/svg">
<path opacity="0.7" d="M50 100C77.6142 100 100 77.6142 100 50C100 22.3858 77.6142 0 50 0C22.3858 0 0 22.3858 0 50C0 77.6142 22.3858 100 50 100Z" fill="#CF4655"/>
<path d="M36.4583 64.0462H62.0279C64.4693 64.0462 65.9994 62.2883 65.9994 60.0748C65.9994 59.4075 65.8366 58.7402 65.4785 58.1216L52.6691 35.2539C51.9369 33.9356 50.5858 33.2356 49.2512 33.2356C47.9004 33.2356 46.5496 33.9356 45.8171 35.2539L33.0241 58.1379C32.6823 58.7564 32.4871 59.4075 32.4871 60.0748C32.4871 62.2883 34.0169 64.0462 36.4583 64.0462ZM49.2512 53.1737C48.405 53.1737 47.9491 52.6856 47.9329 51.8229L47.705 42.9687C47.6887 42.106 48.3235 41.4877 49.235 41.4877C50.1302 41.4877 50.7975 42.1225 50.7812 42.985L50.5533 51.8229C50.5371 52.7018 50.065 53.1737 49.2512 53.1737ZM49.2512 58.6262C48.291 58.6262 47.4446 57.845 47.4446 56.8848C47.4446 55.9081 48.2748 55.1268 49.2512 55.1268C50.2441 55.1268 51.0741 55.8918 51.0741 56.8848C51.0741 57.8612 50.2279 58.6262 49.2512 58.6262Z" fill="white"/>
</svg>
